<mxfile host="" modified="2020-07-18T12:13:46.242Z" agent="5.0 (Windows NT 10.0; Win64; x64) AppleWebKit/537.36 (KHTML, like Gecko) Code/1.46.1 Chrome/78.0.3904.130 Electron/7.3.1 Safari/537.36" etag="MK7cJSS8vYni8vqdBDUo" version="13.1.3" pages="2">
    <diagram id="6hGFLwfOUW9BJ-s0fimq" name="序">
        <mxGraphModel dx="534" dy="623" grid="1" gridSize="10" guides="1" tooltips="1" connect="1" arrows="1" fold="1" page="1" pageScale="1" pageWidth="827" pageHeight="1169" math="0" shadow="0">
            <root>
                <mxCell id="0"/>
                <mxCell id="1" parent="0"/>
                <mxCell id="7" style="edgeStyle=orthogonalEdgeStyle;rounded=0;orthogonalLoop=1;jettySize=auto;html=1;entryX=0.5;entryY=1;entryDx=0;entryDy=0;shadow=1;" edge="1" parent="1" source="2" target="6">
                    <mxGeometry relative="1" as="geometry">
                        <mxPoint x="430" y="170" as="targetPoint"/>
                        <Array as="points">
                            <mxPoint x="215" y="210"/>
                            <mxPoint x="495" y="210"/>
                        </Array>
                    </mxGeometry>
                </mxCell>
                <mxCell id="2" value="传统机器学习" style="rounded=1;whiteSpace=wrap;html=1;shadow=1;" vertex="1" parent="1">
                    <mxGeometry x="160" y="150" width="110" height="40" as="geometry"/>
                </mxCell>
                <mxCell id="6" value="工业场景" style="rounded=1;whiteSpace=wrap;html=1;shadow=1;" vertex="1" parent="1">
                    <mxGeometry x="440" y="150" width="110" height="40" as="geometry"/>
                </mxCell>
                <mxCell id="19" style="edgeStyle=orthogonalEdgeStyle;rounded=0;orthogonalLoop=1;jettySize=auto;html=1;entryX=0.5;entryY=0;entryDx=0;entryDy=0;shadow=1;" edge="1" parent="1" source="10" target="14">
                    <mxGeometry relative="1" as="geometry">
                        <mxPoint x="360" y="350" as="targetPoint"/>
                    </mxGeometry>
                </mxCell>
                <mxCell id="10" value="&lt;div&gt;&lt;span&gt;应用&lt;/span&gt;&lt;/div&gt;&lt;div&gt;&lt;span&gt;1. 传统机器学习模型的假设条件太苛刻，无法适应复杂的业务场景。&lt;/span&gt;&lt;/div&gt;&lt;div&gt;&lt;span&gt;2. 工业场景计算规模大，需要大量工程实现并行计算。&lt;/span&gt;&lt;/div&gt;" style="rounded=1;whiteSpace=wrap;html=1;align=left;shadow=1;" vertex="1" parent="1">
                    <mxGeometry x="160" y="210" width="400" height="60" as="geometry"/>
                </mxCell>
                <mxCell id="20" style="edgeStyle=orthogonalEdgeStyle;rounded=0;orthogonalLoop=1;jettySize=auto;html=1;entryX=0.5;entryY=0;entryDx=0;entryDy=0;shadow=1;" edge="1" parent="1" source="14" target="18">
                    <mxGeometry relative="1" as="geometry"/>
                </mxCell>
                <mxCell id="14" value="深度学习突破&lt;br&gt;1. 模型设计由复杂函数的设计优化转为简单网络结构的组合设计优化。&lt;br&gt;2. 优化方法的统一和简化&lt;br&gt;3. 模型设计和实现的解耦" style="rounded=1;whiteSpace=wrap;html=1;align=left;shadow=1;" vertex="1" parent="1">
                    <mxGeometry x="160" y="363" width="400" height="80" as="geometry"/>
                </mxCell>
                <mxCell id="15" style="edgeStyle=orthogonalEdgeStyle;rounded=0;orthogonalLoop=1;jettySize=auto;html=1;entryX=0.5;entryY=1;entryDx=0;entryDy=0;shadow=1;" edge="1" parent="1" source="16" target="17">
                    <mxGeometry relative="1" as="geometry">
                        <mxPoint x="430" y="549" as="targetPoint"/>
                        <Array as="points">
                            <mxPoint x="215" y="589"/>
                            <mxPoint x="495" y="589"/>
                        </Array>
                    </mxGeometry>
                </mxCell>
                <mxCell id="16" value="深度学习" style="rounded=1;whiteSpace=wrap;html=1;shadow=1;" vertex="1" parent="1">
                    <mxGeometry x="160" y="529" width="110" height="40" as="geometry"/>
                </mxCell>
                <mxCell id="17" value="工业场景" style="rounded=1;whiteSpace=wrap;html=1;shadow=1;" vertex="1" parent="1">
                    <mxGeometry x="440" y="529" width="110" height="40" as="geometry"/>
                </mxCell>
                <mxCell id="24" style="edgeStyle=orthogonalEdgeStyle;rounded=0;orthogonalLoop=1;jettySize=auto;html=1;shadow=1;" edge="1" parent="1" source="18" target="23">
                    <mxGeometry relative="1" as="geometry"/>
                </mxCell>
                <mxCell id="18" value="瓶颈&lt;br&gt;1. 搭积木式的模型架构演进，边际收益越来越低。&lt;br&gt;2. 模型复杂度的提升对数据的需求越来越大&lt;br&gt;3. 相关配套工程系统架构的优化和升级" style="rounded=1;whiteSpace=wrap;html=1;align=left;shadow=1;" vertex="1" parent="1">
                    <mxGeometry x="160" y="770" width="400" height="60" as="geometry"/>
                </mxCell>
                <mxCell id="21" value="应用&lt;br&gt;1. 拿锤子找钉子，把最新的技术应用在自己的场景上。&lt;br&gt;2. 问题驱动，定义问题，明确技术需求，调研相关技术工具。" style="rounded=1;whiteSpace=wrap;html=1;align=left;shadow=1;" vertex="1" parent="1">
                    <mxGeometry x="160" y="599" width="400" height="60" as="geometry"/>
                </mxCell>
                <mxCell id="23" value="发展方向：&lt;br&gt;1. 深度学习称为基础设施&lt;br&gt;2. 单点突破转变为技术体系的优化，主要是算法和系统架构的协同设计" style="rounded=1;whiteSpace=wrap;html=1;align=left;shadow=1;" vertex="1" parent="1">
                    <mxGeometry x="160" y="930" width="400" height="60" as="geometry"/>
                </mxCell>
            </root>
        </mxGraphModel>
    </diagram>
    <diagram id="1iIWfskk9UDJKjw-M7gl" name="Page-2">
        <mxGraphModel dx="534" dy="623" grid="1" gridSize="10" guides="1" tooltips="1" connect="1" arrows="1" fold="1" page="1" pageScale="1" pageWidth="827" pageHeight="1169" math="0" shadow="0">
            <root>
                <mxCell id="Ot15t-MWVHKLGGMhaAiw-0"/>
                <mxCell id="Ot15t-MWVHKLGGMhaAiw-1" parent="Ot15t-MWVHKLGGMhaAiw-0"/>
            </root>
        </mxGraphModel>
    </diagram>
</mxfile>